<?xml version="1.0" encoding="UTF-8" standalone="no"?>
<!-- Created with Inkscape (http://www.inkscape.org/) -->

<svg
   width="121.92643mm"
   height="63.8606mm"
   viewBox="0 0 60.963216 31.9303"
   version="1.1"
   id="svg6865"
   inkscape:version="1.1.1 (3bf5ae0d25, 2021-09-20)"
   sodipodi:docname="diagram3.svg"
   xmlns:inkscape="http://www.inkscape.org/namespaces/inkscape"
   xmlns:sodipodi="http://sodipodi.sourceforge.net/DTD/sodipodi-0.dtd"
   xmlns="http://www.w3.org/2000/svg"
   xmlns:svg="http://www.w3.org/2000/svg">
  <sodipodi:namedview
     id="namedview6867"
     pagecolor="#ffffff"
     bordercolor="#666666"
     borderopacity="1.0"
     inkscape:pageshadow="2"
     inkscape:pageopacity="0.0"
     inkscape:pagecheckerboard="0"
     inkscape:document-units="mm"
     showgrid="false"
     fit-margin-top="0"
     fit-margin-left="0"
     fit-margin-right="0"
     fit-margin-bottom="0"
     inkscape:zoom="0.77771465"
     inkscape:cx="-466.75217"
     inkscape:cy="-123.43859"
     inkscape:window-width="2560"
     inkscape:window-height="1346"
     inkscape:window-x="-11"
     inkscape:window-y="49"
     inkscape:window-maximized="1"
     inkscape:current-layer="layer1"
     scale-x="0.5" />
  <defs
     id="defs6862">
    <pattern
       id="EMFhbasepattern"
       patternUnits="userSpaceOnUse"
       width="6"
       height="6"
       x="0"
       y="0" />
  </defs>
  <g
     inkscape:label="Calque 1"
     inkscape:groupmode="layer"
     id="layer1"
     transform="translate(-80.765816,-181.01423)">
    <path
       style="fill:#000000;fill-opacity:1;fill-rule:evenodd;stroke:none;stroke-width:0.264583"
       d="m 81.682334,197.53126 h -0.522317 c 0,-1.35999 0.177391,-2.70028 0.522317,-3.98143 l 0.502607,0.13797 0.522316,0.11826 c -0.325216,1.22202 -0.482896,2.47361 -0.482896,3.7252 z"
       id="path6872" />
    <path
       style="fill:#000000;fill-opacity:1;fill-rule:evenodd;stroke:none;stroke-width:0.264583"
       d="m 82.184941,193.6878 -0.502607,-0.13797 c 0.354781,-1.31072 0.867243,-2.56231 1.54724,-3.7252 l 0.453331,0.26609 0.453331,0.25623 c -0.630721,1.0939 -1.093908,2.26665 -1.428979,3.45911 z"
       id="path6874" />
    <path
       style="fill:#000000;fill-opacity:1;fill-rule:evenodd;stroke:none;stroke-width:0.264583"
       d="m 83.682905,190.09072 -0.453331,-0.26609 c 0.660287,-1.1826 1.497964,-2.23709 2.434192,-3.19303 l 0.384346,0.38435 0.364636,0.36463 c -0.867242,0.88695 -1.635935,1.89217 -2.276512,2.96637 z"
       id="path6876" />
    <path
       style="fill:#000000;fill-opacity:1;fill-rule:evenodd;stroke:none;stroke-width:0.264583"
       d="m 86.048112,187.01595 -0.384346,-0.38435 c 0.955938,-0.94608 2.020281,-1.77391 3.202885,-2.43419 l 0.25623,0.45333 0.266086,0.45333 c -1.084053,0.64058 -2.089266,1.39941 -2.976219,2.27651 z"
       id="path6878" />
    <path
       style="fill:#000000;fill-opacity:1;fill-rule:evenodd;stroke:none;stroke-width:0.264583"
       d="m 89.122881,184.65074 -0.25623,-0.45333 c 1.162893,-0.68 2.414482,-1.20232 3.715346,-1.54724 l 0.13797,0.5026 0.128116,0.52232 c -1.202314,0.32522 -2.365208,0.79826 -3.459116,1.42898 z"
       id="path6880" />
    <path
       style="fill:#000000;fill-opacity:1;fill-rule:evenodd;stroke:none;stroke-width:0.264583"
       d="m 92.719967,183.15277 -0.13797,-0.5026 c 1.291009,-0.34493 2.631293,-0.52232 3.981432,-0.52232 v 0.52232 0.53217 c -1.251589,0 -2.503178,0.15768 -3.715346,0.49275 z"
       id="path6882" />
    <path
       style="fill:#000000;fill-opacity:1;fill-rule:evenodd;stroke:none;stroke-width:0.264583"
       d="m 96.563429,182.65017 v -0.52232 c 1.359994,0 2.700278,0.17739 3.981431,0.52232 l -0.11826,0.5026 -0.13797,0.52232 c -1.222024,-0.33507 -2.473612,-0.49275 -3.725201,-0.49275 z"
       id="path6884" />
    <path
       style="fill:#000000;fill-opacity:1;fill-rule:evenodd;stroke:none;stroke-width:0.264583"
       d="m 100.4266,183.15277 0.11826,-0.5026 c 1.30087,0.34492 2.55245,0.86724 3.7252,1.54724 l -0.26608,0.45333 -0.25623,0.45333 c -1.09391,-0.63072 -2.26666,-1.10376 -3.45912,-1.42898 z"
       id="path6886" />
    <path
       style="fill:#000000;fill-opacity:1;fill-rule:evenodd;stroke:none;stroke-width:0.264583"
       d="m 104.00398,184.65074 0.26608,-0.45333 c 1.17275,0.66028 2.23709,1.48811 3.19303,2.43419 l -0.38434,0.38435 -0.36464,0.36463 c -0.88695,-0.8771 -1.89217,-1.63593 -2.96636,-2.27651 z"
       id="path6888" />
    <path
       style="fill:#000000;fill-opacity:1;fill-rule:evenodd;stroke:none;stroke-width:0.264583"
       d="m 107.07875,187.01595 0.38434,-0.38435 c 0.93623,0.95594 1.77391,2.01043 2.43419,3.19303 l -0.45333,0.26609 -0.45333,0.25623 c -0.64057,-1.0742 -1.40927,-2.07942 -2.27651,-2.96637 z"
       id="path6890" />
    <path
       style="fill:#000000;fill-opacity:1;fill-rule:evenodd;stroke:none;stroke-width:0.264583"
       d="m 109.44395,190.09072 0.45333,-0.26609 c 0.68,1.16289 1.20232,2.41448 1.54725,3.7252 l -0.50261,0.13797 -0.52232,0.11826 c -0.33507,-1.19246 -0.79825,-2.36521 -1.42898,-3.45911 z"
       id="path6892" />
    <path
       style="fill:#000000;fill-opacity:1;fill-rule:evenodd;stroke:none;stroke-width:0.264583"
       d="m 110.94192,193.6878 0.50261,-0.13797 c 0.34492,1.28115 0.54202,2.62144 0.54202,3.98143 h -0.54202 -0.52232 c 0,-1.25159 -0.17739,-2.50318 -0.50261,-3.7252 z"
       id="path6894" />
    <path
       style="fill:#000000;fill-opacity:1;fill-rule:evenodd;stroke:none;stroke-width:0.264583"
       d="m 111.44453,197.53126 h 0.54202 c 0,1.35014 -0.1971,2.69043 -0.54202,3.98143 l -0.50261,-0.12811 -0.52232,-0.13797 c 0.32522,-1.21217 0.50261,-2.46376 0.50261,-3.71535 z"
       id="path6896" />
    <path
       style="fill:#000000;fill-opacity:1;fill-rule:evenodd;stroke:none;stroke-width:0.264583"
       d="m 110.94192,201.38458 0.50261,0.12811 c -0.34493,1.30087 -0.86725,2.55246 -1.54725,3.71535 l -0.45333,-0.25623 -0.45333,-0.26609 c 0.63073,-1.0939 1.09391,-2.2568 1.42898,-3.45911 z"
       id="path6898" />
    <path
       style="fill:#000000;fill-opacity:1;fill-rule:evenodd;stroke:none;stroke-width:0.264583"
       d="m 109.44395,204.97181 0.45333,0.25623 c -0.66028,1.1826 -1.49796,2.24695 -2.43419,3.20289 l -0.38434,-0.38435 -0.36464,-0.36464 c 0.86724,-0.88695 1.63594,-1.89216 2.27651,-2.97622 z"
       id="path6900" />
    <path
       style="fill:#000000;fill-opacity:1;fill-rule:evenodd;stroke:none;stroke-width:0.264583"
       d="m 107.07875,208.04658 0.38434,0.38435 c -0.95594,0.93622 -2.02028,1.7739 -3.19303,2.43419 l -0.26608,-0.45333 -0.25623,-0.45333 c 1.07419,-0.64058 2.07941,-1.40928 2.96636,-2.27652 z"
       id="path6902" />
    <path
       style="fill:#000000;fill-opacity:1;fill-rule:evenodd;stroke:none;stroke-width:0.264583"
       d="m 104.00398,210.41179 0.26608,0.45333 c -1.17275,0.67014 -2.42433,1.19246 -3.7252,1.54724 l -0.11826,-0.51246 -0.13797,-0.51247 c 1.19246,-0.33507 2.36521,-0.80811 3.45912,-1.42897 z"
       id="path6904" />
    <path
       style="fill:#000000;fill-opacity:1;fill-rule:evenodd;stroke:none;stroke-width:0.264583"
       d="m 100.4266,211.8999 0.11826,0.51246 c -1.281153,0.34492 -2.621437,0.53217 -3.981431,0.53217 v -0.53217 -0.52232 c 1.251589,0 2.503177,-0.17739 3.725201,-0.50261 z"
       id="path6906" />
    <path
       style="fill:#000000;fill-opacity:1;fill-rule:evenodd;stroke:none;stroke-width:0.264583"
       d="m 96.563429,212.41236 v 0.53217 c -1.350139,0 -2.690423,-0.18725 -3.981432,-0.53217 l 0.13797,-0.51246 0.128116,-0.51247 c 1.212168,0.32522 2.463757,0.50261 3.715346,0.50261 z"
       id="path6908" />
    <path
       style="fill:#000000;fill-opacity:1;fill-rule:evenodd;stroke:none;stroke-width:0.264583"
       d="m 92.719967,211.8999 -0.13797,0.51246 c -1.300864,-0.35478 -2.552453,-0.8771 -3.715346,-1.54724 l 0.25623,-0.45333 0.266086,-0.45333 c 1.093908,0.62086 2.256802,1.0939 3.459116,1.42897 z"
       id="path6910" />
    <path
       style="fill:#000000;fill-opacity:1;fill-rule:evenodd;stroke:none;stroke-width:0.264583"
       d="m 89.122881,210.41179 -0.25623,0.45333 c -1.182604,-0.66029 -2.246947,-1.49797 -3.202885,-2.43419 l 0.384346,-0.38435 0.364636,-0.36464 c 0.886953,0.86724 1.892166,1.63594 2.976219,2.27652 z"
       id="path6912" />
    <path
       style="fill:#000000;fill-opacity:1;fill-rule:evenodd;stroke:none;stroke-width:0.264583"
       d="m 86.048112,208.04658 -0.384346,0.38435 c -0.936228,-0.95594 -1.773905,-2.02029 -2.434192,-3.20289 l 0.453331,-0.25623 0.453331,-0.26609 c 0.640577,1.08406 1.40927,2.08927 2.276512,2.97622 z"
       id="path6914" />
    <path
       style="fill:#000000;fill-opacity:1;fill-rule:evenodd;stroke:none;stroke-width:0.264583"
       d="m 83.682905,204.97181 -0.453331,0.25623 c -0.679997,-1.16289 -1.192459,-2.41448 -1.54724,-3.71535 l 0.502607,-0.12811 0.522316,-0.13797 c 0.335071,1.20231 0.798258,2.36521 1.428979,3.45911 z"
       id="path6916" />
    <path
       style="fill:#000000;fill-opacity:1;fill-rule:evenodd;stroke:none;stroke-width:0.264583"
       d="m 82.184941,201.38458 -0.502607,0.12811 c -0.344926,-1.291 -0.522317,-2.63129 -0.522317,-3.98143 h 0.522317 0.542027 c 0,1.25159 0.15768,2.50318 0.482896,3.71535 z"
       id="path6918" />
    <path
       style="fill:#000000;fill-opacity:1;fill-rule:evenodd;stroke:none;stroke-width:0.264583"
       d="m 111.42481,197.53126 h -0.52231 c 0,-1.35999 0.17739,-2.70028 0.52231,-3.98143 l 0.50261,0.13797 0.52232,0.11826 c -0.32522,1.22202 -0.4829,2.47361 -0.4829,3.7252 z"
       id="path6920" />
    <path
       style="fill:#000000;fill-opacity:1;fill-rule:evenodd;stroke:none;stroke-width:0.264583"
       d="m 111.92742,193.6878 -0.50261,-0.13797 c 0.35479,-1.31072 0.86725,-2.56231 1.54724,-3.7252 l 0.45333,0.26609 0.45334,0.25623 c -0.63073,1.0939 -1.09391,2.26665 -1.42898,3.45911 z"
       id="path6922" />
    <path
       style="fill:#000000;fill-opacity:1;fill-rule:evenodd;stroke:none;stroke-width:0.264583"
       d="m 113.42538,190.09072 -0.45333,-0.26609 c 0.66029,-1.1826 1.49797,-2.23709 2.4342,-3.19303 l 0.38434,0.38435 0.36464,0.36463 c -0.86724,0.88695 -1.63594,1.89217 -2.27651,2.96637 z"
       id="path6924" />
    <path
       style="fill:#000000;fill-opacity:1;fill-rule:evenodd;stroke:none;stroke-width:0.264583"
       d="m 115.79059,187.01595 -0.38434,-0.38435 c 0.95593,-0.94608 2.02028,-1.77391 3.20288,-2.43419 l 0.25623,0.45333 0.26609,0.45333 c -1.08405,0.64058 -2.08927,1.39941 -2.97622,2.27651 z"
       id="path6926" />
    <path
       style="fill:#000000;fill-opacity:1;fill-rule:evenodd;stroke:none;stroke-width:0.264583"
       d="m 118.86536,184.65074 -0.25623,-0.45333 c 1.16289,-0.68 2.41448,-1.20232 3.71535,-1.54724 l 0.13797,0.5026 0.12811,0.52232 c -1.20231,0.32522 -2.3652,0.79826 -3.45911,1.42898 z"
       id="path6928" />
    <path
       style="fill:#000000;fill-opacity:1;fill-rule:evenodd;stroke:none;stroke-width:0.264583"
       d="m 122.46245,183.15277 -0.13797,-0.5026 c 1.29101,-0.34493 2.63129,-0.52232 3.98143,-0.52232 v 0.52232 0.53217 c -1.25159,0 -2.50318,0.15768 -3.71535,0.49275 z"
       id="path6930" />
    <path
       style="fill:#000000;fill-opacity:1;fill-rule:evenodd;stroke:none;stroke-width:0.264583"
       d="m 126.30591,182.65017 v -0.52232 c 1.35999,0 2.70028,0.17739 3.98143,0.52232 l -0.11826,0.5026 -0.13797,0.52232 c -1.22202,-0.33507 -2.47361,-0.49275 -3.7252,-0.49275 z"
       id="path6932" />
    <path
       style="fill:#000000;fill-opacity:1;fill-rule:evenodd;stroke:none;stroke-width:0.264583"
       d="m 130.16908,183.15277 0.11826,-0.5026 c 1.30086,0.34492 2.55245,0.86724 3.7252,1.54724 l -0.26608,0.45333 -0.25623,0.45333 c -1.09391,-0.63072 -2.26666,-1.10376 -3.45912,-1.42898 z"
       id="path6934" />
    <path
       style="fill:#000000;fill-opacity:1;fill-rule:evenodd;stroke:none;stroke-width:0.264583"
       d="m 133.74646,184.65074 0.26608,-0.45333 c 1.18261,0.66028 2.23709,1.48811 3.19303,2.43419 l -0.38434,0.38435 -0.36464,0.36463 c -0.88695,-0.8771 -1.89216,-1.63593 -2.96636,-2.27651 z"
       id="path6936" />
    <path
       style="fill:#000000;fill-opacity:1;fill-rule:evenodd;stroke:none;stroke-width:0.264583"
       d="m 136.82123,187.01595 0.38434,-0.38435 c 0.93623,0.95594 1.77391,2.01043 2.43419,3.19303 l -0.45333,0.26609 -0.45333,0.25623 c -0.64057,-1.0742 -1.40927,-2.07942 -2.27651,-2.96637 z"
       id="path6938" />
    <path
       style="fill:#000000;fill-opacity:1;fill-rule:evenodd;stroke:none;stroke-width:0.264583"
       d="m 139.18643,190.09072 0.45333,-0.26609 c 0.68,1.16289 1.20232,2.41448 1.54724,3.7252 l -0.5026,0.13797 -0.52232,0.11826 c -0.33507,-1.19246 -0.79826,-2.36521 -1.42898,-3.45911 z"
       id="path6940" />
    <path
       style="fill:#000000;fill-opacity:1;fill-rule:evenodd;stroke:none;stroke-width:0.264583"
       d="m 140.6844,193.6878 0.5026,-0.13797 c 0.34493,1.28115 0.54203,2.62144 0.54203,3.98143 h -0.54203 -0.52231 c 0,-1.25159 -0.17739,-2.50318 -0.50261,-3.7252 z"
       id="path6942" />
    <path
       style="fill:#000000;fill-opacity:1;fill-rule:evenodd;stroke:none;stroke-width:0.264583"
       d="m 141.187,197.53126 h 0.54203 c 0,1.35014 -0.1971,2.69043 -0.54203,3.98143 l -0.5026,-0.12811 -0.52232,-0.13797 c 0.32522,-1.21217 0.50261,-2.46376 0.50261,-3.71535 z"
       id="path6944" />
    <path
       style="fill:#000000;fill-opacity:1;fill-rule:evenodd;stroke:none;stroke-width:0.264583"
       d="m 140.6844,201.38458 0.5026,0.12811 c -0.34492,1.30087 -0.86724,2.55246 -1.54724,3.71535 l -0.45333,-0.25623 -0.45333,-0.26609 c 0.63072,-1.0939 1.09391,-2.2568 1.42898,-3.45911 z"
       id="path6946" />
    <path
       style="fill:#000000;fill-opacity:1;fill-rule:evenodd;stroke:none;stroke-width:0.264583"
       d="m 139.18643,204.97181 0.45333,0.25623 c -0.66028,1.1826 -1.49796,2.24695 -2.43419,3.20289 l -0.38434,-0.38435 -0.36464,-0.36464 c 0.86724,-0.88695 1.63594,-1.89216 2.27651,-2.97622 z"
       id="path6948" />
    <path
       style="fill:#000000;fill-opacity:1;fill-rule:evenodd;stroke:none;stroke-width:0.264583"
       d="m 136.82123,208.04658 0.38434,0.38435 c -0.95594,0.93622 -2.01042,1.7739 -3.19303,2.43419 l -0.26608,-0.45333 -0.25623,-0.45333 c 1.0742,-0.64058 2.07941,-1.40928 2.96636,-2.27652 z"
       id="path6950" />
    <path
       style="fill:#000000;fill-opacity:1;fill-rule:evenodd;stroke:none;stroke-width:0.264583"
       d="m 133.74646,210.41179 0.26608,0.45333 c -1.17275,0.67014 -2.42434,1.19246 -3.7252,1.54724 l -0.11826,-0.51246 -0.13797,-0.51247 c 1.19246,-0.33507 2.36521,-0.80811 3.45912,-1.42897 z"
       id="path6952" />
    <path
       style="fill:#000000;fill-opacity:1;fill-rule:evenodd;stroke:none;stroke-width:0.264583"
       d="m 130.16908,211.8999 0.11826,0.51246 c -1.28115,0.34492 -2.62144,0.53217 -3.98143,0.53217 v -0.53217 -0.52232 c 1.25159,0 2.50318,-0.17739 3.7252,-0.50261 z"
       id="path6954" />
    <path
       style="fill:#000000;fill-opacity:1;fill-rule:evenodd;stroke:none;stroke-width:0.264583"
       d="m 126.30591,212.41236 v 0.53217 c -1.35014,0 -2.69042,-0.18725 -3.98143,-0.53217 l 0.13797,-0.51246 0.12811,-0.51247 c 1.21217,0.32522 2.46376,0.50261 3.71535,0.50261 z"
       id="path6956" />
    <path
       style="fill:#000000;fill-opacity:1;fill-rule:evenodd;stroke:none;stroke-width:0.264583"
       d="m 122.46245,211.8999 -0.13797,0.51246 c -1.30087,-0.35478 -2.55246,-0.8771 -3.71535,-1.54724 l 0.25623,-0.45333 0.26609,-0.45333 c 1.09391,0.62086 2.2568,1.0939 3.45911,1.42897 z"
       id="path6958" />
    <path
       style="fill:#000000;fill-opacity:1;fill-rule:evenodd;stroke:none;stroke-width:0.264583"
       d="m 118.86536,210.41179 -0.25623,0.45333 c -1.1826,-0.66029 -2.24695,-1.49797 -3.20288,-2.43419 l 0.38434,-0.38435 0.36464,-0.36464 c 0.88695,0.86724 1.89217,1.63594 2.97622,2.27652 z"
       id="path6960" />
    <path
       style="fill:#000000;fill-opacity:1;fill-rule:evenodd;stroke:none;stroke-width:0.264583"
       d="m 115.79059,208.04658 -0.38434,0.38435 c -0.93623,-0.95594 -1.77391,-2.02029 -2.4342,-3.20289 l 0.45333,-0.25623 0.45334,-0.26609 c 0.64057,1.08406 1.40927,2.08927 2.27651,2.97622 z"
       id="path6962" />
    <path
       style="fill:#000000;fill-opacity:1;fill-rule:evenodd;stroke:none;stroke-width:0.264583"
       d="m 113.42538,204.97181 -0.45333,0.25623 c -0.67999,-1.16289 -1.19245,-2.41448 -1.54724,-3.71535 l 0.50261,-0.12811 0.52232,-0.13797 c 0.33507,1.20231 0.79825,2.36521 1.42898,3.45911 z"
       id="path6964" />
    <path
       style="fill:#000000;fill-opacity:1;fill-rule:evenodd;stroke:none;stroke-width:0.264583"
       d="m 111.92742,201.38458 -0.50261,0.12811 c -0.34492,-1.291 -0.52231,-2.63129 -0.52231,-3.98143 h 0.52231 0.54203 c 0,1.25159 0.15768,2.50318 0.4829,3.71535 z"
       id="path6966" />
    <path
       style="fill:#c00000;fill-opacity:1;fill-rule:evenodd;stroke:none;stroke-width:0.264583"
       d="m 110.10424,197.8072 v 0 c 0,-0.24637 0.069,-0.48289 0.1971,-0.6997 0.11826,-0.20696 0.29565,-0.39421 0.50261,-0.52232 0.20695,-0.11826 0.45333,-0.16754 0.68985,-0.16754 v 0 c 0.26608,0 0.50261,0.0493 0.71942,0.16754 0.20695,0.12811 0.37449,0.31536 0.5026,0.52232 0.11826,0.21681 0.18725,0.45333 0.18725,0.6997 v 0 0 c 0,0.24638 -0.069,0.4829 -0.18725,0.68986 -0.12811,0.21681 -0.29565,0.40405 -0.5026,0.52231 -0.21681,0.12812 -0.45334,0.1971 -0.71942,0.1971 v 0 c -0.23652,0 -0.4829,-0.069 -0.68985,-0.1971 -0.20696,-0.11826 -0.38435,-0.3055 -0.50261,-0.52231 -0.12811,-0.20696 -0.1971,-0.44348 -0.1971,-0.68986 z"
       id="path6968" />
    <path
       style="fill:#ff0000;fill-opacity:1;fill-rule:evenodd;stroke:none;stroke-width:0.264583"
       d="m 114.88393,204.65645 2.59187,4.73041 -4.66143,-2.72984 z"
       id="path6970" />
    <path
       style="fill:#ff0000;fill-opacity:1;fill-rule:evenodd;stroke:none;stroke-width:0.264583"
       d="m 133.65776,208.86455 4.86839,-2.33565 -2.96637,4.50375 z"
       id="path6972" />
    <path
       style="fill:#ff0000;fill-opacity:1;fill-rule:evenodd;stroke:none;stroke-width:0.264583"
       d="m 137.72789,190.11042 -2.57216,-4.75012 4.66143,2.72984 z"
       id="path6974" />
    <path
       style="fill:#ff0000;fill-opacity:1;fill-rule:evenodd;stroke:none;stroke-width:0.264583"
       d="m 118.76681,185.81363 -4.50375,2.96637 2.32579,-4.85853 z"
       id="path6976" />
    <path
       style="fill:#ff0000;fill-opacity:1;fill-rule:evenodd;stroke:none;stroke-width:0.264583"
       d="m 107.94599,209.05179 -4.89795,2.24695 3.0452,-4.45447 z"
       id="path6978" />
    <path
       style="fill:#ff0000;fill-opacity:1;fill-rule:evenodd;stroke:none;stroke-width:0.264583"
       d="m 88.304914,211.46627 -3.281725,-4.25737 5.026065,1.9513 z"
       id="path6980" />
    <path
       style="fill:#ff0000;fill-opacity:1;fill-rule:evenodd;stroke:none;stroke-width:0.264583"
       d="m 80.765816,193.7765 3.124045,-4.4052 -0.413912,5.37099 z"
       id="path6982" />
    <path
       style="fill:#ff0000;fill-opacity:1;fill-rule:evenodd;stroke:none;stroke-width:0.264583"
       d="m 98.52458,181.01423 4.54317,2.91709 -5.390703,-0.15768 z"
       id="path6984" />
  </g>
</svg>
